<svg id="binance-coin-bnb-logo" xmlns="http://www.w3.org/2000/svg" width="40" height="40" viewBox="0 0 40 40">
  <path id="Shape" d="M7.712,27.712l-.006-.006,4.526-4.514L20,30.96l7.772-7.771,4.522,4.518,0,0L20,40ZM30.96,20l4.52-4.52L40,20l-4.52,4.52ZM0,20l4.52-4.521L9.04,20,4.52,24.52ZM20,9.04l-7.768,7.769-4.52-4.521L20,0,32.292,12.291l-4.52,4.521Z" fill="#f3ba2f"/>
  <path id="Path" d="M9.13,4.565h0L4.568,0,1.193,3.373h0l-.388.388-.8.8L0,4.567l.006.007L4.568,9.135,9.133,4.57l0,0,0,0" transform="translate(15.502 15.363)" fill="#f3ba2f"/>
</svg>
