<?xml version="1.0" standalone="no"?>
<!DOCTYPE svg PUBLIC "-//W3C//DTD SVG 20010904//EN"
 "http://www.w3.org/TR/2001/REC-SVG-20010904/DTD/svg10.dtd">
<svg version="1.0" xmlns="http://www.w3.org/2000/svg"
 width="800.000000pt" height="800.000000pt" viewBox="0 0 800.000000 800.000000"
 preserveAspectRatio="xMidYMid meet">
<metadata>
Created by potrace 1.11, written by Peter Selinger 2001-2013
</metadata>
<g transform="translate(0.000000,800.000000) scale(0.100000,-0.100000)"
fill="#000000" stroke="none">
<path d="M3735 7585 c-238 -141 -294 -174 -317 -182 -10 -3 -18 -8 -18 -12 0
-4 -16 -13 -35 -21 -19 -8 -35 -17 -35 -20 0 -4 -12 -12 -27 -19 -16 -7 -39
-20 -53 -29 -14 -9 -27 -17 -30 -17 -3 0 -16 -8 -30 -16 -21 -14 -71 -43 -220
-129 -8 -5 -87 -51 -175 -102 -87 -51 -163 -95 -168 -97 -6 -2 -45 -25 -89
-52 -44 -27 -82 -49 -84 -49 -3 0 -54 -29 -114 -65 -60 -37 -111 -65 -114 -63
-2 2 -12 -4 -22 -13 -11 -9 -39 -28 -64 -41 -25 -14 -137 -79 -250 -145 -113
-65 -225 -130 -250 -144 -25 -13 -47 -27 -50 -30 -3 -3 -36 -23 -75 -45 -38
-21 -90 -51 -115 -66 -25 -15 -52 -31 -60 -35 -8 -4 -48 -26 -88 -50 -40 -24
-77 -43 -82 -43 -6 0 -10 -4 -10 -8 0 -4 -12 -13 -27 -20 -16 -6 -66 -34 -112
-62 -46 -27 -85 -50 -87 -50 -1 0 -39 -22 -84 -50 -45 -27 -83 -50 -86 -50 -2
0 -21 -11 -42 -23 -20 -13 -57 -35 -82 -49 -25 -14 -108 -63 -185 -108 -133
-78 -183 -107 -267 -154 -20 -12 -70 -41 -112 -65 l-76 -45 0 -2213 c0 -1217
2 -2213 5 -2213 3 0 27 14 53 30 27 17 54 30 60 30 6 0 12 4 14 8 1 4 26 21
53 36 28 16 70 40 95 54 25 13 56 32 70 41 14 10 46 28 72 42 27 13 48 27 48
31 0 5 5 8 10 8 6 0 77 39 158 86 81 48 172 100 202 117 30 17 58 35 62 41 4
6 8 8 8 4 0 -4 24 7 53 25 28 19 97 59 152 91 55 31 107 61 115 66 15 10 77
45 161 92 24 14 102 60 173 102 70 42 130 76 132 76 3 0 109 62 154 90 8 5 49
29 90 52 41 24 83 47 92 53 54 32 139 81 178 103 25 14 62 36 82 49 21 12 42
23 48 23 5 0 10 4 10 10 0 5 11 12 25 16 14 3 25 10 25 14 0 5 6 10 14 12 8 2
154 84 324 183 236 137 308 183 300 193 -6 6 -15 12 -20 12 -5 0 -49 25 -99
55 -50 30 -92 55 -94 55 -3 0 -50 27 -105 60 -55 33 -105 60 -110 60 -6 0 -10
4 -10 8 0 4 -12 13 -27 20 -41 18 -141 76 -155 90 -7 7 -18 12 -24 12 -7 0
-19 6 -26 13 -8 6 -29 20 -47 29 -31 17 -34 17 -74 -5 -23 -12 -43 -25 -45
-29 -2 -5 -8 -8 -14 -8 -5 0 -22 -8 -36 -19 -26 -17 -78 -47 -152 -87 -19 -11
-37 -21 -40 -24 -3 -3 -14 -10 -25 -16 -11 -6 -81 -46 -155 -89 -74 -43 -157
-92 -185 -107 -27 -16 -63 -37 -80 -47 -16 -10 -50 -29 -75 -43 -25 -14 -123
-71 -219 -127 -96 -55 -176 -101 -179 -101 -3 0 -13 -6 -21 -14 -9 -7 -36 -25
-61 -38 -25 -14 -77 -44 -117 -67 -40 -22 -74 -41 -76 -41 -1 0 -3 596 -2
1324 l0 1324 27 21 c14 12 28 21 31 21 2 0 66 36 141 79 75 44 138 76 140 73
2 -4 4 -519 4 -1145 0 -626 2 -1141 5 -1143 4 -4 126 62 177 96 8 6 22 13 30
17 8 4 48 26 88 50 40 24 75 43 79 43 4 0 14 6 22 14 15 12 57 37 153 89 24
13 38 28 39 41 0 12 1 193 1 404 0 210 3 382 5 382 7 0 283 -156 373 -210 8
-5 51 -30 95 -55 92 -52 138 -79 250 -144 44 -26 87 -50 95 -54 8 -4 29 -16
45 -27 17 -11 37 -23 45 -27 19 -8 267 -150 300 -171 14 -9 27 -17 30 -17 3 0
42 -22 88 -49 49 -29 82 -54 82 -64 3 -116 0 -1596 -3 -1599 -3 -2 -28 10 -56
27 -29 16 -56 30 -61 30 -4 0 -10 3 -12 8 -1 4 -43 31 -93 59 -49 28 -177 101
-284 162 l-194 112 -156 -90 c-86 -49 -241 -139 -345 -198 -169 -97 -220 -133
-187 -133 5 0 38 -17 73 -37 35 -21 65 -38 68 -38 3 0 16 -8 30 -17 14 -9 149
-87 300 -173 151 -87 381 -219 510 -293 129 -75 255 -147 280 -161 25 -14 47
-29 48 -33 2 -4 8 -8 13 -8 6 0 112 -59 237 -131 125 -72 247 -143 272 -157
25 -13 72 -40 105 -60 33 -19 83 -47 110 -63 l50 -27 -1 1616 c-1 889 -2 1620
-3 1623 -1 7 -79 51 -83 47 -2 -2 -10 3 -18 10 -23 19 -83 57 -103 65 -14 5
-183 102 -257 147 -38 23 -236 136 -255 145 -11 6 -38 22 -60 36 -22 14 -45
28 -50 30 -28 11 -290 165 -293 171 -2 5 -8 8 -12 8 -5 0 -33 14 -62 31 -29
18 -75 44 -103 59 -27 15 -90 51 -138 79 -49 28 -93 51 -98 51 -5 0 -9 3 -9 8
0 4 -21 18 -47 32 -27 13 -124 69 -217 122 -93 54 -172 98 -177 98 -5 0 -9 4
-9 9 0 5 -10 13 -22 17 -13 4 -41 18 -62 32 -22 13 -58 34 -80 46 -23 13 -86
49 -141 81 -55 32 -116 67 -135 78 -99 55 -126 72 -143 85 -9 8 -17 12 -17 9
0 -4 -16 5 -36 18 -19 13 -44 27 -55 30 -27 9 -24 21 11 37 17 7 30 16 30 20
0 5 3 7 8 6 4 -1 18 5 32 14 14 9 44 26 67 39 80 46 229 132 343 199 63 37
198 116 300 175 468 271 542 314 560 326 8 5 29 16 45 24 30 15 47 25 95 56
14 9 45 27 70 41 25 14 86 49 135 78 50 29 106 61 125 72 19 11 50 29 68 40
l32 20 1 -69 c0 -37 0 -436 0 -885 l1 -817 91 -54 c51 -30 153 -89 227 -132
74 -43 147 -86 162 -96 15 -11 29 -19 32 -19 3 0 55 -29 117 -65 61 -36 117
-67 122 -68 8 -1 11 511 12 1756 0 968 -2 1762 -5 1766 -3 5 -36 -11 -75 -34z"/>
<path d="M4185 5859 c0 -973 1 -1769 3 -1769 4 0 328 186 362 208 14 9 27 17
30 17 5 1 59 33 105 63 11 6 27 15 35 19 39 18 216 126 222 135 3 6 6 404 6
885 0 481 2 876 4 878 1 2 107 -57 233 -132 127 -74 238 -137 248 -140 9 -3
17 -9 17 -13 0 -4 11 -11 25 -14 14 -4 25 -11 25 -16 0 -6 6 -10 14 -10 7 0
26 -10 42 -22 16 -13 30 -22 31 -20 3 2 19 -7 81 -45 15 -10 29 -18 32 -18 5
-1 144 -82 277 -162 40 -23 75 -43 79 -43 3 0 18 -8 32 -19 15 -10 47 -29 72
-43 25 -14 111 -64 192 -111 81 -48 163 -94 182 -104 20 -9 36 -20 36 -25 0
-4 4 -8 9 -8 11 0 170 -91 213 -121 15 -11 28 -17 28 -13 0 4 8 0 18 -8 16
-13 41 -29 132 -80 176 -100 260 -151 261 -156 4 -16 5 -2652 1 -2652 -2 0
-31 16 -63 35 -33 19 -63 35 -68 35 -4 0 -16 8 -27 17 -10 10 -35 26 -54 35
-19 10 -42 22 -50 28 -42 28 -172 100 -180 100 -6 0 -10 5 -10 10 0 6 -4 10
-9 10 -8 0 -105 55 -219 123 -26 15 -55 31 -64 34 -10 3 -18 9 -18 13 0 4 -8
10 -17 13 -10 3 -40 19 -68 36 -27 16 -61 36 -75 44 -14 7 -41 23 -60 34 -19
11 -75 44 -123 72 -49 28 -93 51 -98 51 -5 0 -9 3 -9 8 0 4 -10 12 -23 18 -12
6 -81 45 -154 87 l-132 77 -33 -19 c-18 -10 -100 -58 -183 -106 -82 -49 -170
-99 -195 -113 -25 -14 -61 -35 -80 -47 -19 -12 -45 -25 -57 -29 -13 -4 -23
-12 -23 -17 0 -6 -4 -7 -10 -4 -5 3 -10 2 -10 -3 0 -5 -18 -17 -40 -28 -22
-10 -40 -22 -40 -25 0 -4 -10 -10 -22 -13 -13 -3 -33 -14 -46 -24 l-23 -18 38
-21 c52 -28 145 -82 163 -93 18 -11 415 -242 464 -269 18 -11 44 -25 57 -33
13 -7 26 -15 29 -18 3 -3 16 -11 30 -18 14 -7 43 -23 65 -36 22 -13 52 -31 66
-39 14 -8 110 -63 213 -123 102 -60 198 -115 213 -123 16 -8 30 -18 31 -23 2
-4 8 -8 13 -8 6 0 63 -31 127 -69 64 -38 134 -78 155 -90 70 -40 102 -58 187
-108 84 -50 391 -228 503 -292 17 -10 57 -33 87 -51 54 -32 85 -50 155 -90 19
-11 127 -74 240 -140 114 -66 208 -120 211 -120 2 0 4 996 4 2213 l0 2212 -45
28 c-25 15 -49 27 -52 27 -4 0 -14 6 -22 14 -9 7 -41 27 -71 43 -119 66 -155
87 -158 95 -2 4 -7 8 -12 8 -9 0 -151 80 -160 89 -5 6 -41 26 -155 87 -27 15
-51 30 -53 35 -2 5 -8 9 -12 9 -5 0 -33 14 -62 31 -29 18 -66 40 -83 49 -16
10 -70 41 -120 70 -49 29 -110 64 -135 78 -25 14 -56 33 -70 42 -14 10 -35 21
-47 24 -13 4 -23 12 -23 17 0 5 -5 9 -10 9 -6 0 -141 77 -301 170 -160 94
-293 170 -295 170 -3 0 -33 17 -67 38 -87 52 -94 57 -167 99 -36 21 -78 46
-95 56 -16 9 -38 20 -47 23 -10 4 -18 10 -18 15 0 5 -5 9 -11 9 -6 0 -48 22
-93 49 -44 27 -108 64 -141 82 -33 18 -66 39 -73 46 -7 7 -17 13 -21 13 -4 0
-108 59 -232 131 -123 72 -240 140 -259 150 -19 11 -51 29 -70 41 -19 11 -55
32 -80 46 -25 13 -70 39 -100 57 -167 100 -352 205 -360 205 -6 0 -10 4 -10 8
0 4 -19 17 -43 29 l-42 20 0 -1768z"/>
<path d="M6877 5163 c-3 -5 -25 -19 -49 -31 -24 -13 -61 -34 -83 -48 -22 -13
-47 -27 -55 -31 -8 -4 -43 -24 -78 -45 -34 -21 -64 -38 -67 -38 -2 0 -45 -25
-95 -55 -50 -30 -95 -55 -100 -55 -6 0 -10 -4 -10 -10 0 -6 -3 -9 -7 -8 -5 1
-40 -16 -79 -39 -39 -23 -83 -47 -97 -54 -15 -7 -27 -16 -27 -20 0 -4 -10 -11
-22 -15 -12 -3 -50 -24 -85 -45 -35 -22 -66 -39 -68 -39 -3 0 -22 -11 -43 -23
-20 -13 -57 -35 -82 -49 -25 -14 -85 -49 -135 -78 -49 -29 -108 -62 -130 -74
-22 -12 -175 -100 -340 -195 -370 -214 -360 -208 -415 -239 -25 -13 -49 -28
-55 -32 -5 -4 -30 -19 -55 -32 -25 -14 -62 -35 -82 -47 -130 -74 -145 -82
-261 -150 -49 -28 -93 -51 -98 -51 -5 0 -9 -4 -9 -10 0 -5 -11 -12 -25 -16
-14 -3 -29 -14 -33 -23 -6 -12 -9 -3165 -3 -3230 1 -10 5 -10 14 -3 12 10 254
150 315 183 18 9 39 22 46 28 7 6 16 8 19 4 4 -3 7 -2 7 3 0 5 17 18 38 29 20
11 72 41 115 67 42 26 77 44 77 41 0 -3 8 1 18 9 9 9 37 27 62 40 25 14 137
78 250 143 113 65 214 123 225 129 11 6 22 13 25 16 3 3 14 10 25 16 67 36
156 87 304 172 68 40 126 72 128 72 3 0 17 8 31 19 15 10 50 31 77 45 28 15
111 63 185 106 121 70 160 100 132 100 -6 0 -45 20 -86 45 -42 25 -81 45 -86
45 -6 0 -10 5 -10 10 0 6 -4 10 -9 10 -9 0 -172 90 -181 100 -3 3 -21 13 -40
24 -106 57 -145 80 -148 88 -2 4 -12 8 -22 8 -10 0 -22 5 -25 10 -4 6 -24 19
-46 30 l-39 20 -40 -25 c-22 -14 -41 -25 -43 -25 -2 0 -140 -79 -307 -175
-167 -96 -305 -173 -307 -171 -3 2 -4 365 -4 806 0 760 1 803 18 815 15 12
116 70 372 216 25 14 62 36 81 47 19 12 42 25 50 29 8 4 80 45 160 91 231 135
244 142 270 155 14 6 27 14 30 17 5 6 49 31 170 98 25 14 57 33 72 43 14 11
28 19 31 19 3 0 36 18 75 40 38 22 71 40 74 40 3 0 5 -180 5 -400 0 -220 2
-402 4 -404 4 -3 207 -121 306 -177 21 -12 52 -30 68 -40 17 -11 37 -22 45
-26 8 -4 48 -27 89 -51 40 -23 75 -41 78 -38 7 6 6 2286 0 2292 -3 3 -7 1 -10
-3z"/>
</g>
</svg>
