<svg id="cardano-ada-logo" xmlns="http://www.w3.org/2000/svg" width="40" height="37" viewBox="0 0 40 37">
  <path id="Path" d="M0,2.84A2.854,2.854,0,0,0,2.359,6h.148A2.771,2.771,0,0,0,5,2.994,2.766,2.766,0,0,0,2.5,0,2.751,2.751,0,0,0,0,2.84Z" transform="translate(11 16)" fill="#0033ad"/>
  <path id="Path-2" data-name="Path" d="M1.055,0A1,1,0,1,0,2,1.055.992.992,0,0,0,1.055,0Z" transform="translate(0 18)" fill="#0033ad"/>
  <path id="Path-3" data-name="Path" d="M1.453,1.89A1.007,1.007,0,0,0,1.894.545,1.012,1.012,0,0,0,.547.105.993.993,0,0,0,.106,1.437a.992.992,0,0,0,1.348.452Z" transform="translate(9 1)" fill="#0033ad"/>
  <path id="Path-4" data-name="Path" d="M2.174,2.841A1.5,1.5,0,1,0,.159,2.174,1.5,1.5,0,0,0,2.174,2.841Z" transform="translate(11 5)" fill="#0033ad"/>
  <path id="Path-5" data-name="Path" d="M.454,1.838A1,1,0,1,0,.166.451h0A1,1,0,0,0,.454,1.838Z" transform="translate(4 9)" fill="#0033ad"/>
  <path id="Path-6" data-name="Path" d="M1.583,0A1.5,1.5,0,1,0,3,1.583H3A1.5,1.5,0,0,0,1.583,0Z" transform="translate(4 17)" fill="#0033ad"/>
  <path id="Path-7" data-name="Path" d="M.549.107A1,1,0,1,0,1.893.549h0A1,1,0,0,0,.549.107Z" transform="translate(4 26)" fill="#0033ad"/>
  <path id="Path-8" data-name="Path" d="M.681,2.754a1.488,1.488,0,0,0,2.072-.435A1.488,1.488,0,0,0,2.319.246,1.5,1.5,0,1,0,.681,2.754Z" transform="translate(9 12)" fill="#0033ad"/>
  <path id="Path-9" data-name="Path" d="M.68,2.755A1.5,1.5,0,1,0,.253.673h0A1.489,1.489,0,0,0,.68,2.755Z" transform="translate(26 5)" fill="#0033ad"/>
  <path id="Path-10" data-name="Path" d="M.45,1.836a1,1,0,0,0,1.385-.293A.988.988,0,0,0,1.541.164,1.006,1.006,0,0,0,.156.445,1.025,1.025,0,0,0,.45,1.836Z" transform="translate(29 1)" fill="#0033ad"/>
  <path id="Path-11" data-name="Path" d="M2.641.005A2.715,2.715,0,0,0,0,2.836,2.85,2.85,0,0,0,2.363,6H2.5A2.789,2.789,0,0,0,5,2.991,2.8,2.8,0,0,0,2.641.005Z" transform="translate(24 16)" fill="#0033ad"/>
  <path id="Path-12" data-name="Path" d="M.269,4.353A2.5,2.5,0,0,0,2.506,6,2.781,2.781,0,0,0,5,3,3.515,3.515,0,0,0,4.733,1.65,2.318,2.318,0,0,0,1.378.323,3.306,3.306,0,0,0,.269,4.353Z" transform="translate(14 10)" fill="#0033ad"/>
  <path id="Path-13" data-name="Path" d="M1.458,1.892A1,1,0,0,0,.545.11,1.006,1.006,0,0,0,.1,1.449a1.015,1.015,0,0,0,1.355.443Z" transform="translate(34 9)" fill="#0033ad"/>
  <path id="Path-14" data-name="Path" d="M.828.156A1.5,1.5,0,1,0,2.84.824,1.5,1.5,0,0,0,.828.156Z" transform="translate(28 12)" fill="#0033ad"/>
  <path id="Path-15" data-name="Path" d="M.942,2A1.012,1.012,0,0,0,2,1.058,1,1,0,0,0,0,.933,1.015,1.015,0,0,0,.942,2Z" transform="translate(19)" fill="#0033ad"/>
  <path id="Path-16" data-name="Path" d="M1.419,3A1.49,1.49,0,0,0,3,1.581,1.49,1.49,0,0,0,1.58,0,1.5,1.5,0,1,0,1.419,3Z" transform="translate(18 6)" fill="#0033ad"/>
  <path id="Path-17" data-name="Path" d="M2.172,2.84A1.5,1.5,0,1,0,.16,2.172,1.5,1.5,0,0,0,2.172,2.84Z" transform="translate(9 22)" fill="#0033ad"/>
  <path id="Path-18" data-name="Path" d="M.408,1.357A3.377,3.377,0,0,0,1.132,5.51a2.258,2.258,0,0,0,3.46-.869A3.377,3.377,0,0,0,3.868.488,2.2,2.2,0,0,0,2.5,0,2.435,2.435,0,0,0,.408,1.357Z" transform="translate(21 10)" fill="#0033ad"/>
  <path id="Path-19" data-name="Path" d="M4.729,1.653A2.315,2.315,0,0,0,1.377.323,3.3,3.3,0,0,0,.269,4.347,2.315,2.315,0,0,0,3.621,5.677h0a3.281,3.281,0,0,0,1.117-4C4.739,1.665,4.739,1.665,4.729,1.653Z" transform="translate(21 21)" fill="#0033ad"/>
  <path id="Path-20" data-name="Path" d="M2.319.246A1.488,1.488,0,0,0,.246.681,1.488,1.488,0,0,0,.681,2.754,1.5,1.5,0,0,0,2.319.246Z" transform="translate(28 22)" fill="#0033ad"/>
  <path id="Path-21" data-name="Path" d="M3,1.583A1.5,1.5,0,1,0,1.417,3h0A1.509,1.509,0,0,0,3,1.583Z" transform="translate(33 17)" fill="#0033ad"/>
  <path id="Path-22" data-name="Path" d="M1.055,0A1,1,0,1,0,2,1.055,1.008,1.008,0,0,0,1.055,0Z" transform="translate(38 17)" fill="#0033ad"/>
  <path id="Path-23" data-name="Path" d="M1.546.162a1,1,0,1,0,.288,1.387A1,1,0,0,0,1.546.162Z" transform="translate(34 26)" fill="#0033ad"/>
  <path id="Path-24" data-name="Path" d="M1.546.165A1,1,0,0,0,.165.448,1.007,1.007,0,0,0,.446,1.835a1,1,0,0,0,1.381-.282h0A.988.988,0,0,0,1.546.165Z" transform="translate(9 34)" fill="#0033ad"/>
  <path id="Path-25" data-name="Path" d="M.547.11A1.007,1.007,0,0,0,.106,1.455a1.012,1.012,0,0,0,1.348.44A.993.993,0,0,0,1.894.563.992.992,0,0,0,.547.11Z" transform="translate(29 34)" fill="#0033ad"/>
  <path id="Path-26" data-name="Path" d="M4.593,4.646A3.392,3.392,0,0,0,3.871.489a2.262,2.262,0,0,0-3.46.867,3.379,3.379,0,0,0,.722,4.157A2.189,2.189,0,0,0,2.5,6,2.386,2.386,0,0,0,4.593,4.646Z" transform="translate(14 21)" fill="#0033ad"/>
  <path id="Path-27" data-name="Path" d="M2.32.245a1.5,1.5,0,1,0,.427,2.081h0A1.491,1.491,0,0,0,2.32.245Z" transform="translate(11 29)" fill="#0033ad"/>
  <path id="Path-28" data-name="Path" d="M1.058,0A1.012,1.012,0,0,0,0,.942a1,1,0,0,0,2,.125A1.015,1.015,0,0,0,1.058,0Z" transform="translate(19 35)" fill="#0033ad"/>
  <path id="Path-29" data-name="Path" d="M1.581,0A1.49,1.49,0,0,0,0,1.42,1.5,1.5,0,1,0,1.581,0Z" transform="translate(18 28)" fill="#0033ad"/>
  <path id="Path-30" data-name="Path" d="M.817.163A1.5,1.5,0,1,0,2.842.828,1.5,1.5,0,0,0,.817.163Z" transform="translate(26 29)" fill="#0033ad"/>
</svg>
