<svg id="pancakeswap-cake-logo" xmlns="http://www.w3.org/2000/svg" width="38" height="38" viewBox="0 0 38 38">
  <path id="Shape" d="M18.941,38A25.173,25.173,0,0,1,5.754,34.675,13.334,13.334,0,0,1,1.618,30.9,8.75,8.75,0,0,1,0,25.888V23.156a8.883,8.883,0,0,1,2.323-5.878,16.047,16.047,0,0,1,5.829-4.1L6.833,5.937A5,5,0,0,1,11.748,0,5.019,5.019,0,0,1,15.3,1.47a4.926,4.926,0,0,1,1.484,3.518v6.175H16.8c.355,0,.714-.03,1.062-.058s.72-.059,1.08-.059a11.8,11.8,0,0,1,2.038.119V4.988A4.926,4.926,0,0,1,22.461,1.47a5.029,5.029,0,0,1,7.4.316,5.16,5.16,0,0,1,1.19,4.151l-1.318,7.244a16.532,16.532,0,0,1,5.888,4.1A8.8,8.8,0,0,1,38,23.156v2.731A8.657,8.657,0,0,1,36.367,30.9a13.26,13.26,0,0,1-4.24,3.77A25.171,25.171,0,0,1,18.941,38ZM11.748,1.544a3.43,3.43,0,0,0-2.687,1.3A3.37,3.37,0,0,0,8.392,5.7L9.95,14.25a16.362,16.362,0,0,0-6.083,3.8,7.611,7.611,0,0,0-2.307,5.225v2.732c0,5.828,7.8,10.569,17.382,10.569s17.382-4.741,17.382-10.569V23.275A7.421,7.421,0,0,0,34.1,17.946a16.143,16.143,0,0,0-6.174-3.815l1.559-8.55a3.6,3.6,0,0,0-.79-2.929,3.5,3.5,0,0,0-6.163,2.217v7.837a6.883,6.883,0,0,0-1.558-.119c-.359,0-.695-.03-1.019-.059s-.66-.059-1.019-.059a13.221,13.221,0,0,0-2.158.119,7.488,7.488,0,0,0-.78.059,7.477,7.477,0,0,1-.778.059V4.988A3.465,3.465,0,0,0,11.748,1.544Z" fill="#633001"/>
  <path id="Path" d="M34.88,2.67C34.88,8.357,27.062,13,17.44,13S0,8.357,0,2.67V0H35V2.67Z" transform="translate(1 23)" fill="#fedc90"/>
  <path id="Path-2" data-name="Path" d="M6.566,4.118a3.382,3.382,0,1,1,6.683-.706v7.765a35.385,35.385,0,0,1,3.634-.235c1.172,0,2.345.118,3.517.235V3.412A3.408,3.408,0,0,1,23.8,0a3.536,3.536,0,0,1,3.4,4.118l-1.524,8.471C30.6,14.471,34,17.765,34,21.529,34,27.294,26.379,32,17,32S0,27.294,0,21.529c0-3.765,3.283-7.059,8.207-8.941Z" transform="translate(2 2)" fill="#d1884f"/>
  <path id="Path-3" data-name="Path" d="M4,3c0,1.625-.875,3-2,3S0,4.625,0,3,.875,0,2,0,4,1.375,4,3Z" transform="translate(10 19)" fill="#633001"/>
  <path id="Path-4" data-name="Path" d="M4,3c0,1.625-.875,3-2,3S0,4.625,0,3,.875,0,2,0,4,1.375,4,3Z" transform="translate(23 19)" fill="#633001"/>
</svg>
