<svg id="multi-collateral-dai-dai-logo" xmlns="http://www.w3.org/2000/svg" width="41" height="41" viewBox="0 0 41 41">
  <path id="Path" d="M20.5,0A20.5,20.5,0,1,1,0,20.5,20.5,20.5,0,0,1,20.5,0Z" fill="#f5ac37"/>
  <path id="Shape" d="M12.181,23H3.223v-.014l0,0V15.835c0-.169,0-.194-.206-.194H.22c-.156,0-.22,0-.22-.207V12.978H2.994c.167,0,.232,0,.232-.22V10.328c0-.155,0-.194-.206-.194H.22c-.156,0-.22,0-.22-.206V7.653c0-.142,0-.181.206-.181H2.981c.194,0,.246,0,.246-.246V.259c0-.207,0-.259.258-.259h9.679a14.67,14.67,0,0,1,2.091.233,12.586,12.586,0,0,1,4.04,1.5A11.393,11.393,0,0,1,21.567,3.49a12.541,12.541,0,0,1,1.381,1.719,10.391,10.391,0,0,1,1.008,1.978.336.336,0,0,0,.386.272h2.31c.3,0,.3,0,.31.284v2.12c0,.207-.077.259-.284.259H24.895c-.18,0-.232,0-.22.232a13.14,13.14,0,0,1,0,2.365c0,.22,0,.246.247.246H26.96c.091.117,0,.233,0,.35a2.525,2.525,0,0,1,0,.452v1.564c0,.22-.064.285-.258.285H24.262a.323.323,0,0,0-.374.246,10.338,10.338,0,0,1-2.711,3.956A15.6,15.6,0,0,1,19.8,20.93c-.517.3-1.02.608-1.55.853a13.972,13.972,0,0,1-3.046.969A15.919,15.919,0,0,1,12.4,23Z" transform="translate(8 8)" fill="#fefefd"/>
</svg>
