<svg xmlns="http://www.w3.org/2000/svg" xmlns:xlink="http://www.w3.org/1999/xlink" width="30.988" height="41.999" viewBox="0 0 30.988 41.999">
  <defs>
    <clipPath id="clip-path">
      <path id="Clip_2" data-name="Clip 2" d="M0,0H30.988V41H0Z" transform="translate(0 0.001)" fill="none"/>
    </clipPath>
  </defs>
  <g id="Group_6" data-name="Group 6" transform="translate(0 -0.001)">
    <g id="Group_3" data-name="Group 3">
      <path id="Clip_2-2" data-name="Clip 2" d="M0,0H30.988V41H0Z" transform="translate(0 0.001)" fill="none"/>
      <g id="Group_3-2" data-name="Group 3" clip-path="url(#clip-path)">
        <path id="Fill_1" data-name="Fill 1" d="M15.7,0A15.781,15.781,0,0,0,0,15.733a16.19,16.19,0,0,0,.828,5.11A2.245,2.245,0,0,0,3.59,22.222a2.241,2.241,0,0,0,1.335-2.758,10.4,10.4,0,0,1-.611-4.01A11.327,11.327,0,1,1,16.323,27.124s-2.2.134-3.3.269a11.379,11.379,0,0,0-1.2.239.144.144,0,0,1-.205,0l0,0a.145.145,0,0,1,0-.176l.341-1.865,2.07-9.328a2.153,2.153,0,1,0-4.21-.9S4.893,38.193,4.893,38.4a2.073,2.073,0,0,0,1.5,2.52l.036.008h.114A2.067,2.067,0,0,0,9.06,39.44a.562.562,0,0,0,.013-.056.534.534,0,0,1,0-.1c.061-.269.682-3.307.682-3.307a5.59,5.59,0,0,1,4.624-4.405c.475-.073,2.472-.207,2.472-.207A15.724,15.724,0,0,0,15.7,0" transform="translate(0 0.001)" fill="#fff"/>
      </g>
    </g>
    <path id="Fill_4" data-name="Fill 4" d="M3,.052A2.481,2.481,0,0,0,.065,1.966c0,.012,0,.025-.008.037A2.459,2.459,0,0,0,1.946,4.93a.006.006,0,0,1,0,0H2.02A2.432,2.432,0,0,0,4.955,3.148c0-.009,0-.02.008-.03V2.982A2.56,2.56,0,0,0,3,.052" transform="translate(14 37)" fill="#e6007a"/>
  </g>
</svg>
