<svg id="injective-protocol-inj-logo" xmlns="http://www.w3.org/2000/svg" xmlns:xlink="http://www.w3.org/1999/xlink" width="40" height="39" viewBox="0 0 40 39">
  <defs>
    <linearGradient id="linear-gradient" x1="0.294" y1="0.902" x2="0.872" y2="0.204" gradientUnits="objectBoundingBox">
      <stop offset="0" stop-color="#174e5b"/>
      <stop offset="0.07" stop-color="#195a6c"/>
      <stop offset="0.21" stop-color="#1e779a"/>
      <stop offset="0.4" stop-color="#27a7e3"/>
      <stop offset="0.47" stop-color="#2abaff"/>
      <stop offset="0.7" stop-color="#1ddaf0"/>
      <stop offset="1" stop-color="#0effe0"/>
    </linearGradient>
    <linearGradient id="linear-gradient-2" x1="0.703" y1="0.099" x2="0.129" y2="0.796" xlink:href="#linear-gradient"/>
  </defs>
  <path id="Path" d="M24.937,35.039c-.1-.1-.193-.194-.289-.194a21.116,21.116,0,0,1-6.362-2.42c-4.048-2.42-6.747-6-6.843-10.163a10.726,10.726,0,0,1,.964-4.549c.386-.968,2.7-4.259,2.988-4.84,1.542-2.42,1.06-2.226-1.157-5.227L11.153,3.1,9.129,0A29.581,29.581,0,0,0,5.756,2.71a19.979,19.979,0,0,0-4.723,7.743,20.41,20.41,0,0,0-.867,9,19.261,19.261,0,0,0,3.277,8.421,20.051,20.051,0,0,0,6.651,6.1C3.25,28.941.069,21.294,2.671,13.648A19.329,19.329,0,0,1,5.756,7.937l2.217,3.291a1.4,1.4,0,0,1,.193.678,1.8,1.8,0,0,1-.193.678,15.577,15.577,0,0,0-2.506,4.452C2.575,25.457,10.382,34.168,18.575,35.62a17.724,17.724,0,0,0,5.976.194.336.336,0,0,0,.193-.1c.1-.1.1-.1.1-.194v-.29C25.033,35.233,25.033,35.136,24.937,35.039Z" transform="translate(0 3)" fill="url(#linear-gradient)"/>
  <path id="Path-2" data-name="Path" d="M.1.961c.1.1.192.194.288.194a20.941,20.941,0,0,1,6.329,2.42c4.027,2.42,6.712,6,6.808,10.163a10.773,10.773,0,0,1-.959,4.549c-.384.968-2.685,4.259-2.973,4.84-1.534,2.42-1.055,2.226,1.151,5.227L13.808,32.9l2.11,3.1a29.456,29.456,0,0,0,3.356-2.71,20,20,0,0,0,4.7-7.743,20.51,20.51,0,0,0,.863-9,19.32,19.32,0,0,0-3.26-8.421,19.986,19.986,0,0,0-6.616-6.1c6.808,5.033,9.973,12.68,7.288,20.327a19.36,19.36,0,0,1-3.068,5.711l-2.205-3.291a1.409,1.409,0,0,1-.192-.678,1.807,1.807,0,0,1,.192-.678,15.6,15.6,0,0,0,2.493-4.452C22.342,10.543,14.575,1.832,6.425.38A17.543,17.543,0,0,0,.479.187a.334.334,0,0,0-.192.1C.1.283,0,.38,0,.477v.29A.3.3,0,0,0,.1.961Z" transform="translate(15)" fill="url(#linear-gradient-2)"/>
</svg>
