<svg id="TEnfi-token" xmlns="http://www.w3.org/2000/svg" width="40" height="36" viewBox="0 0 40 36">
  <path id="Fill_1" data-name="Fill 1" d="M19,0,0,11V33l15.2-8.8L11.4,22,3.8,26.4V13.2L15.2,6.6v8.8L19,17.6Z" fill="#eb4f45"/>
  <path id="Fill_2" data-name="Fill 2" d="M0,0V17.6l3.8-2.2V6.6l11.4,6.6V26.4L7.6,22,3.8,24.2,19,33V11Z" transform="translate(21)" fill="#eb4f45"/>
  <path id="Fill_3" data-name="Fill 3" d="M10.925,1.711,0,7.79V24l10.925-6.079L7.283,15.895,3.641,17.921V9.816l.409-.228.617-.343,6.258-3.482V9.816L14,11.528V0Z" transform="translate(21 12)" fill="#eb4f45"/>
  <path id="Fill_4" data-name="Fill 4" d="M0,11.527,3.075,9.816V5.764L9.333,9.245l.617.343.409.228v8.105L6.717,15.895,3.075,17.921,14,24V7.79L3.075,1.711,0,0Z" transform="translate(5 12)" fill="#eb4f45"/>
</svg>
