<svg xmlns="http://www.w3.org/2000/svg" width="40" height="45.999" viewBox="0 0 40 45.999">
  <g id="uniswap-uni-logo" transform="translate(0 -0.001)">
    <path id="Path" d="M.426.145C-.067.073-.091.049.144.024A7.533,7.533,0,0,1,2.354.218,9.481,9.481,0,0,1,7.195,3.559l.423.508.611-.1a12.755,12.755,0,0,1,7.52.968,9.684,9.684,0,0,1,1.692,1.017,2.4,2.4,0,0,1,.165.678,4.217,4.217,0,0,1-.259,2.639.726.726,0,0,0-.071.775.706.706,0,0,0,.635.412c.564,0,1.152-.92,1.434-2.2l.118-.508.212.242a9.646,9.646,0,0,1,2.28,4.648L22,13l-.212-.315a4.04,4.04,0,0,0-1.128-1.235c-.8-.557-1.645-.726-3.878-.847a15.463,15.463,0,0,1-4.3-.678c-1.927-.654-2.914-1.5-5.194-4.624a22.085,22.085,0,0,0-2.28-2.76A7.891,7.891,0,0,0,.426.145Z" transform="translate(15 10)" fill="#ff007a"/>
    <path id="Path-2" data-name="Path" d="M3.293,2.563A5.474,5.474,0,0,1,3.732.423,1.726,1.726,0,0,1,3.952,0a.937.937,0,0,1-.1.373,4.846,4.846,0,0,0-.1,2.19C3.927,3.683,4,3.832,5.171,5.051c.536.572,1.17,1.294,1.414,1.593L7,7.191l-.415-.4A14.89,14.89,0,0,0,4.635,5.226c-.171-.1-.2-.1-.317.025-.1.1-.122.249-.122.97a5.422,5.422,0,0,1-.536,2.538c-.2.373-.219.3-.049-.124a3.7,3.7,0,0,0,.146-1.543c0-2.165-.244-2.687-1.731-3.558-.366-.224-1-.547-1.366-.722A5.357,5.357,0,0,1,0,2.488,10.73,10.73,0,0,1,2.05,3.11c.853.348,1,.373,1.1.348C3.22,3.384,3.269,3.185,3.293,2.563Z" transform="translate(30 11)" fill="#ff007a"/>
    <path id="Path-3" data-name="Path" d="M1.506,5.158A7.316,7.316,0,0,1,.02.459L.067,0,.3.044a5.82,5.82,0,0,1,1.51.525c.944.525,1.369,1.246,1.77,3.038.118.525.283,1.136.354,1.333a7.735,7.735,0,0,0,.944,1.574c.26.35.094.525-.5.481A4.868,4.868,0,0,1,1.506,5.158Z" transform="translate(15 12)" fill="#ff007a"/>
    <path id="Path-4" data-name="Path" d="M6.28,7.163C1.64,5.234,0,3.57,0,.748,0,.338.023,0,.023,0a4.416,4.416,0,0,1,.4.314c.937.772,1.992,1.109,4.921,1.544a19.91,19.91,0,0,1,3.585.772,6.975,6.975,0,0,1,5.015,5.62,10.035,10.035,0,0,1-.141,3.015A6.131,6.131,0,0,1,13.052,13c-.023,0-.07-.121-.07-.314a3.964,3.964,0,0,0-1.359-2.725C10.639,9.093,9.373,8.442,6.28,7.163Z" transform="translate(26 20)" fill="#ff007a"/>
    <path id="Path-5" data-name="Path" d="M10.208,1.306a5.219,5.219,0,0,0-.24-.962L9.847,0l.216.252a3.985,3.985,0,0,1,.768,1.329A2.738,2.738,0,0,1,11,2.863,2.8,2.8,0,0,1,10.832,4.1,4.122,4.122,0,0,1,9.823,5.635a5.91,5.91,0,0,1-3.6,1.512c-.288.023-1.1.092-1.825.137a14.7,14.7,0,0,0-4.082.641C.17,7.971.026,8.017,0,7.994a5.491,5.491,0,0,1,1.3-.733,13.563,13.563,0,0,1,3.6-.916,17.149,17.149,0,0,0,2.137-.412C9.415,5.222,10.592,3.459,10.208,1.306Z" transform="translate(19 27)" fill="#ff007a"/>
    <path id="Path-6" data-name="Path" d="M.592,4.141a5.781,5.781,0,0,1-.42-3.9C.218.12.265,0,.312,0A.991.991,0,0,1,.638.169C.918.361,1.5.7,3,1.541a11.959,11.959,0,0,1,3.71,2.817A6.049,6.049,0,0,1,7.942,7.271a9.849,9.849,0,0,1-.117,2.865,7.075,7.075,0,0,1-3.384,4.623,3.2,3.2,0,0,1-.49.241,1.952,1.952,0,0,1,.21-.53,4.917,4.917,0,0,0,.21-3.732A15.489,15.489,0,0,0,2.505,7.271,23.005,23.005,0,0,1,.592,4.141Z" transform="translate(30 28)" fill="#ff007a"/>
    <path id="Path-7" data-name="Path" d="M.485,3.007A12.276,12.276,0,0,1,6.23.084,8.106,8.106,0,0,1,9.206.205a5.124,5.124,0,0,1,2.907,1.974,7.544,7.544,0,0,1,1.061,3.314c.092.658.208,1.34.231,1.486A3.316,3.316,0,0,0,14.421,8.9a3.347,3.347,0,0,0,3.184.1A1.487,1.487,0,0,1,18,8.879a3.541,3.541,0,0,1-.992.707A3.127,3.127,0,0,1,15.344,10a3.311,3.311,0,0,1-2.815-1.827,14.011,14.011,0,0,1-.761-1.608C10.96,4.591,10.545,4.006,9.6,3.348A2.715,2.715,0,0,0,6.9,3.08a1.888,1.888,0,0,0-.6,2.851,2.322,2.322,0,0,0,1.315.731A1.437,1.437,0,0,0,9.206,5.176a1.168,1.168,0,0,0-.761-1.194.993.993,0,0,0-1.523.8.67.67,0,0,0,.438.658c.185.1.185.1.046.073a.923.923,0,0,1-.3-1.584,1.612,1.612,0,0,1,2.469.56A2.688,2.688,0,0,1,9.622,6.15a2.128,2.128,0,0,1-2.63,1.316A3.753,3.753,0,0,1,4.984,6.029,6.033,6.033,0,0,0,.438,3.568L0,3.495Z" transform="translate(13 36)" fill="#ff007a"/>
    <path id="Shape" d="M7.632,40c-.118,0-.131-.045-.131-.142a5.383,5.383,0,0,0-.881-1.724,7.91,7.91,0,0,1-1.143-2.221A5.859,5.859,0,0,1,5.168,33.6a3.937,3.937,0,0,1,.476-1.89,9.717,9.717,0,0,1,1.5-2.1c1.813-2.219,2.472-3.54,2.714-5.434A5.235,5.235,0,0,1,11,20.981c.392-.438.476-.6.476-.9a45.1,45.1,0,0,0-2.429-4.536c-2.533-4.492-2.858-5.069-2.835-5.109h.006a.046.046,0,0,1,.02.006c.022.022,1.346,2.025,2.976,4.56,1.876,2.9,3,4.556,3.237,4.8a1.722,1.722,0,0,0,1.143.5,3.634,3.634,0,0,0,1.357-.378,1.009,1.009,0,0,0,.561-.626.765.765,0,0,0-.181-.626C14.9,18.1,6.295,7.627.811,1.016.636.8.47.593.337.43A4.741,4.741,0,0,1,0,0C.079.018,15.365,16.68,16.691,18.193l.31.33-.024.544a2.218,2.218,0,0,1-.809,1.725,4.4,4.4,0,0,1-2.619,1.063,1.784,1.784,0,0,0-1.31.544c-.29.312-.405.725-.476,1.7a8.4,8.4,0,0,1-1.048,3.733c-.719,1.5-.857,2.03-.738,2.835.144.951.7,1.659,1.976,2.528A4.238,4.238,0,0,1,13.62,34.8a1.911,1.911,0,0,1,.167.993,2.132,2.132,0,0,1-.715,1.8,9.392,9.392,0,0,1-4.667,2.268A4.982,4.982,0,0,1,7.632,40Zm-.315-6.828h0c-.255,0-.53.11-.53.353a.241.241,0,0,0,.191.237c.1.058.159.113.175.178a.433.433,0,0,1-.1.318c-.175.274-.159.5.048.662a.6.6,0,0,0,.37.131.776.776,0,0,0,.655-.438.973.973,0,0,0-.31-1.3.924.924,0,0,0-.494-.14Z" fill="#ff007a"/>
    <path id="Shape-2" data-name="Shape" d="M1.369,3c-.676,0-.922-.083-1.2-.4A1.788,1.788,0,0,1,.05,1.382,2.06,2.06,0,0,1,1.369.055,1.822,1.822,0,0,1,1.854,0,2.62,2.62,0,0,1,2.883.19a1.721,1.721,0,0,1,1.1,1.618C3.859,2.465,2.687,3,1.369,3ZM2.033.247C1.538.247,1.027.5,1.027.932c0,.3.514.607,1,.607a1.4,1.4,0,0,0,.9-.36A.467.467,0,0,0,3.028.8.627.627,0,0,0,2.687.415,1.3,1.3,0,0,0,2.033.247Z" transform="translate(16 22)" fill="#ff007a"/>
  </g>
</svg>
