<svg id="yearn-finance-yfi-logo" xmlns="http://www.w3.org/2000/svg" width="41" height="41" viewBox="0 0 41 41">
  <path id="SVGID" d="M20.5,0A20.5,20.5,0,1,1,0,20.5,20.5,20.5,0,0,1,20.5,0Z" fill="#006ae3"/>
  <path id="SVGID-2" d="M0,17V0H2V17Z" transform="translate(20 12)" fill="#fff"/>
  <path id="SVGID-3" d="M16,10.433,9.952,11.907,8.6,6.136l1.8-.374L11.111,8.5a4.211,4.211,0,0,0-.545-5.016A4.432,4.432,0,0,0,7.233,1.907,4.621,4.621,0,0,0,2.146,5.294c-.372,2.035.048,3.541,2.9,5.513L4.886,13S1.7,10.937.879,9.491a5.875,5.875,0,0,1,.242-6.554C2.18,1.363,4.268-.147,7.947.012c1.85.072,6.367,2.15,5.667,7.007a10.246,10.246,0,0,1-.635,2.122l2.481-.509Z" transform="translate(13 7)" fill="#fff"/>
  <path id="SVGID-4" d="M14.769,10.2c-1.115,1.553-3.262,3.019-6.96,2.771C5.945,12.857,1.459,10.657,2.3,5.8a10.256,10.256,0,0,1,.7-2.112L.492,4.133,0,2.316,6.137.982,7.33,6.812l-1.825.331L4.869,4.376a4.224,4.224,0,0,0,.4,5.051,4.441,4.441,0,0,0,3.314,1.661A4.684,4.684,0,0,0,13.807,7.81c.431-2.032.052-3.558-2.761-5.61L11.272,0S14.421,2.148,15.2,3.621a5.915,5.915,0,0,1-.436,6.58Z" transform="translate(12 21)" fill="#fff"/>
</svg>
